Patient4_TMGait_0pt7_01_right_49_GRF.mot
version=1
nRows=52
nColumns=19
inDegrees=no
endheader
time	F1x	F1y	F1z	M1x	M1y	M1z	F2x	F2y	F2z	M2x	M2y	M2z	EC1x	EC1y	EC1z	EC2x	EC2y	EC2z
56.37	-5.4601	754.2229	70.0069	-268.5714	-78.1059	793.0767	-1.6988	-1.8294	-5.1962	2.2677	1.3287	4.4304	-0.0592	0.0182	-0.0073	-0.0462	0.0165	0.9585
56.3817	-0.71529	744.7774	69.7319	-265.995	-74.3741	782.8684	-1.3878	-0.46202	-3.4543	1.8197	0.98487	3.9513	-0.0592	0.0182	-0.0073	-0.0462	0.0165	0.9585
56.3934	3.8949	735.3375	68.9947	-263.2691	-70.2929	771.5036	-1.0974	0.80862	-1.9967	1.4849	0.69543	3.7117	-0.0592	0.0182	-0.0073	-0.0462	0.0165	0.9585
56.4051	8.1198	726.7159	67.7929	-260.6607	-66.0518	759.8465	-0.8537	1.8861	-0.90752	1.2717	0.48041	3.6839	-0.0592	0.0182	-0.0073	-0.0462	0.0165	0.9585
56.4169	11.8935	719.4639	66.246	-258.3914	-61.8361	748.6266	-0.69189	2.7323	-0.16687	1.1634	0.33471	3.81	-0.0592	0.0182	-0.0073	-0.0462	0.0165	0.9585
56.4286	15.2491	713.8446	64.472	-256.6019	-57.7529	738.3093	-0.6	3.3422	0.26579	1.1286	0.2637	4.0108	-0.0592	0.0182	-0.0073	-0.0462	0.0165	0.9585
56.4403	18.3129	709.8405	62.6135	-255.3352	-53.8807	729.0656	-0.57229	3.7302	0.47553	1.1326	0.24788	4.2107	-0.0592	0.0182	-0.0073	-0.0462	0.0165	0.9585
56.452	21.2598	707.2479	60.7854	-254.5573	-50.2463	720.8551	-0.59887	3.8661	0.517	1.1273	0.29301	4.2776	-0.0592	0.0182	-0.0073	-0.0462	0.0165	0.9585
56.4637	24.2742	705.7769	59.1025	-254.1846	-46.8705	713.5027	-0.66464	3.7301	0.45484	1.0709	0.38336	4.1105	-0.0592	0.0182	-0.0073	-0.0462	0.0165	0.9585
56.4754	27.5154	705.1356	57.6649	-254.113	-43.7617	706.8224	-0.7502	3.2488	0.31984	0.91111	0.51941	3.5698	-0.0592	0.0182	-0.0073	-0.0462	0.0165	0.9585
56.4871	31.1231	705.1306	56.5814	-254.2534	-40.9452	700.706	-0.83373	2.3436	0.14418	0.60031	0.68596	2.5211	-0.0592	0.0182	-0.0073	-0.0462	0.0165	0.9585
56.4989	35.1308	705.7067	55.979	-254.5597	-38.4988	695.1736	-0.88027	0.93786	-0.056056	0.099283	0.86669	0.84504	-0.0592	0.0182	-0.0073	-0.0462	0.0165	0.9585
56.5106	39.5177	707.0324	55.9698	-255.0584	-36.5167	690.464	-0.85211	-1.024	-0.25966	-0.61536	1.0283	-1.5368	-0.0592	0.0182	-0.0073	-0.0462	0.0165	0.9585
56.5223	44.1719	709.4089	56.6483	-255.8261	-35.1077	686.9496	-0.69596	-3.4932	-0.42795	-1.5253	1.1085	-4.5752	-0.0592	0.0182	-0.0073	-0.0462	0.0165	0.9585
56.534	48.9185	713.1729	58.0459	-256.9624	-34.3471	685.0266	-0.34676	-6.2583	-0.5083	-2.5476	1.0179	-8.0061	-0.0592	0.0182	-0.0073	-0.0462	0.0165	0.9585
56.5457	53.5465	718.5734	60.12	-258.5451	-34.2532	684.9909	0.26916	-8.8619	-0.42208	-3.5046	0.62753	-11.2546	-0.0592	0.0182	-0.0073	-0.0462	0.0165	0.9585
56.5574	57.8318	725.6443	62.7245	-260.5857	-34.7578	686.9221	1.2146	-10.4958	-0.078954	-4.0867	-0.20166	-13.3221	-0.0592	0.0182	-0.0073	-0.0462	0.0165	0.9585
56.5691	61.524	734.1358	65.6569	-262.9991	-35.7515	690.6242	2.5088	-9.9316	0.63624	-3.8209	-1.6156	-12.681	-0.0592	0.0182	-0.0073	-0.0462	0.0165	0.9585
56.5809	64.4385	743.4722	68.6661	-265.5885	-37.0686	695.593	4.1123	-5.4618	1.8374	-2.05	-3.7311	-7.1875	-0.0592	0.0182	-0.0073	-0.0462	0.0165	0.9585
56.5926	66.4672	752.7891	71.5212	-268.0581	-38.541	701.0395	5.8729	5.0654	3.6236	2.0527	-6.5929	5.859	-0.0592	0.0182	-0.0073	-0.0462	0.0165	0.9585
56.6043	67.659	761.0016	73.9586	-270.0433	-39.9291	705.934	7.4655	24.0635	6.0221	9.4099	-10.0852	29.4921	-0.0592	0.0182	-0.0073	-0.0462	0.0165	0.9585
56.616	68.2189	766.8243	75.7541	-271.1245	-40.9786	709.0239	8.3348	53.8264	8.9355	20.8908	-13.8458	66.5989	-0.0592	0.0182	-0.0073	-0.0462	0.0165	0.9585
56.6277	68.4604	768.8394	76.6453	-270.8567	-41.3621	708.889	7.628	95.8001	12.0374	37.0295	-17.1203	119.0067	-0.0592	0.0182	-0.0073	-0.0462	0.0165	0.9585
56.6394	68.7314	765.5129	76.4264	-268.7659	-40.7883	703.9876	4.1574	149.6045	14.7333	57.649	-18.7145	186.2763	-0.0592	0.0182	-0.0073	-0.0462	0.0165	0.9585
56.6511	69.2857	755.2026	74.8884	-264.3427	-38.989	692.7147	-3.1077	212.0011	16.2561	81.4615	-17.2794	264.3994	-0.0592	0.0182	-0.0073	-0.0462	0.0165	0.9585
56.6629	70.1231	736.2376	71.9233	-257.0553	-35.877	673.5059	-13.7418	276.0735	15.5222	105.7675	-11.693	344.6998	-0.0592	0.0182	-0.0073	-0.0462	0.0165	0.9585
56.6746	70.9516	707.1905	67.483	-246.4397	-31.5312	645.1177	-25.2363	332.4678	11.7237	126.9898	-2.1066	415.3034	-0.0592	0.0182	-0.0073	-0.0462	0.0165	0.9585
56.6863	71.2953	667.4473	61.6715	-232.2856	-26.2346	607.1158	-34.805	374.3056	5.5382	142.5377	9.5046	467.3323	-0.0592	0.0182	-0.0073	-0.0462	0.0165	0.9585
56.698	70.5912	617.5587	54.7613	-214.7602	-20.4372	560.1407	-41.1968	400.2728	-2.1414	151.9452	21.5209	498.9658	-0.0592	0.0182	-0.0073	-0.0462	0.0165	0.9585
56.7097	68.4477	559.1556	47.2016	-194.3821	-14.6732	505.7832	-44.4159	413.9742	-10.0633	156.6277	32.4318	514.7123	-0.0592	0.0182	-0.0073	-0.0462	0.0165	0.9585
56.7214	64.6282	494.6362	39.4577	-171.9355	-9.4214	446.3026	-45.1055	421.0242	-17.065	158.7883	41.1405	521.6494	-0.0592	0.0182	-0.0073	-0.0462	0.0165	0.9585
56.7331	59.0921	426.8484	31.9231	-148.3722	-5.0239	384.3063	-44.3202	427.2624	-22.6296	160.6735	47.4413	527.1764	-0.0592	0.0182	-0.0073	-0.0462	0.0165	0.9585
56.7449	51.9581	358.8274	24.8941	-124.7246	-1.6811	322.535	-42.8558	437.3378	-26.5821	164.0492	51.5265	537.0346	-0.0592	0.0182	-0.0073	-0.0462	0.0165	0.9585
56.7566	43.6147	293.4812	18.6041	-101.9975	0.55473	263.5427	-41.5201	454.2621	-29.5776	170.0043	54.4597	554.9767	-0.0592	0.0182	-0.0073	-0.0462	0.0165	0.9585
56.7683	34.6524	233.3292	13.2287	-81.0675	1.7587	209.5104	-40.6806	479.3884	-32.2486	178.9827	57.1957	582.6062	-0.0592	0.0182	-0.0073	-0.0462	0.0165	0.9585
56.78	25.7859	180.1524	8.895	-62.559	2.0951	161.9132	-40.6398	512.3561	-35.5471	190.7551	60.9259	619.5499	-0.0592	0.0182	-0.0073	-0.0462	0.0165	0.9585
56.7917	17.6486	134.8888	5.6418	-46.8012	1.7791	121.4766	-41.5091	551.274	-39.8306	204.5644	66.1302	663.5113	-0.0592	0.0182	-0.0073	-0.0462	0.0165	0.9585
56.8034	10.7062	97.589	3.3998	-33.8181	1.0514	88.1626	-43.4005	593.683	-45.2454	219.4454	72.9697	711.5803	-0.0592	0.0182	-0.0073	-0.0462	0.0165	0.9585
56.8151	5.159	67.7239	2.0142	-23.4255	0.12506	61.4733	-46.1233	637.1326	-51.3121	234.4982	80.8314	760.762	-0.0592	0.0182	-0.0073	-0.0462	0.0165	0.9585
56.8269	1.0585	44.4651	1.2246	-15.3381	-0.75548	40.6564	-49.4826	679.5591	-57.5352	248.9721	89.0375	808.5847	-0.0592	0.0182	-0.0073	-0.0462	0.0165	0.9585
56.8386	-1.6811	26.9318	0.80504	-9.2517	-1.4286	24.9484	-53.0614	719.04	-63.372	262.1955	96.8101	852.684	-0.0592	0.0182	-0.0073	-0.0462	0.0165	0.9585
56.8503	-3.1657	14.3237	0.56412	-4.8874	-1.7781	13.6213	-56.5133	753.7472	-68.4859	273.5361	103.6061	890.8859	-0.0592	0.0182	-0.0073	-0.0462	0.0165	0.9585
56.862	-3.6028	5.8237	0.40473	-1.9599	-1.8068	5.9504	-59.3669	782.0621	-72.6389	282.4532	108.9785	921.2381	-0.0592	0.0182	-0.0073	-0.0462	0.0165	0.9585
56.8737	-3.3598	0.6787	0.29539	-0.20137	-1.6268	1.2627	-61.3275	802.8453	-75.6996	288.5737	112.6723	942.4281	-0.0592	0.0182	-0.0073	-0.0462	0.0165	0.9585
56.8854	-2.7918	-1.9501	0.24277	0.68182	-1.3734	-1.1607	-62.167	815.4375	-77.6883	291.7084	114.6375	953.709	-0.0592	0.0182	-0.0073	-0.0462	0.0165	0.9585
56.8971	-2.1216	-2.8698	0.22752	0.97083	-1.1141	-2.0327	-61.8214	819.9544	-78.6605	291.9405	114.9395	955.2801	-0.0592	0.0182	-0.0073	-0.0462	0.0165	0.9585
56.9089	-1.4895	-2.7408	0.23849	0.89914	-0.89032	-1.9461	-60.3102	817.1868	-78.7912	289.6073	113.8039	948.1229	-0.0592	0.0182	-0.0073	-0.0462	0.0165	0.9585
56.9206	-0.97078	-2.0607	0.25521	0.64218	-0.71043	-1.3571	-57.7649	808.5962	-78.1953	285.2781	111.4408	933.9975	-0.0592	0.0182	-0.0073	-0.0462	0.0165	0.9585
56.9323	-0.58732	-1.181	0.268	0.32256	-0.5725	-0.59493	-54.3422	795.9071	-77.0746	279.6121	108.1543	914.9351	-0.0592	0.0182	-0.0073	-0.0462	0.0165	0.9585
56.944	-0.33134	-0.29654	0.2699	0.011227	-0.46911	0.1867	-50.2786	780.8636	-75.5272	273.267	104.1726	892.9963	-0.0592	0.0182	-0.0073	-0.0462	0.0165	0.9585
56.9557	-0.1715	0.46969	0.26215	-0.24927	-0.3903	0.87718	-45.7862	764.9929	-73.7165	266.8067	99.7749	869.9714	-0.0592	0.0182	-0.0073	-0.0462	0.0165	0.9585
56.9674	-0.08979	1.0969	0.24211	-0.45098	-0.3263	1.4748	-41.0818	749.4636	-71.7291	260.6561	95.1563	847.2267	-0.0592	0.0182	-0.0073	-0.0462	0.0165	0.9585
